<svg width="60" height="74" viewBox="0 0 60 74" fill="none" xmlns="http://www.w3.org/2000/svg">
<path fill-rule="evenodd" clip-rule="evenodd" d="M19.8108 2.33691C17.7578 2.33691 15.7889 3.15246 14.3372 4.60415C12.8855 6.05584 12.07 8.02475 12.07 10.0777V35.158C4.04503 35.7882 -0.887249 44.6729 3.4549 51.8345C4.74808 53.9692 6.01575 56.0054 7.02843 57.5281C9.9572 62.3912 13.4724 65.9538 17.8474 68.2742C22.226 70.5873 27.2529 71.549 33.0158 71.549C38.6984 71.549 44.8037 70.6165 49.5575 67.4473C54.5116 64.147 57.6043 58.6865 57.6043 50.6033L57.5897 50.3118V37.3983C57.5897 36.3815 57.3894 35.3746 57.0001 34.4352C56.6109 33.4958 56.0404 32.6423 55.3212 31.9234C54.602 31.2046 53.7482 30.6345 52.8086 30.2457C51.8691 29.8569 50.8621 29.657 49.8452 29.6575H48.4792C48.1659 29.6575 47.8587 29.6793 47.5576 29.7231C47.4951 28.4729 47.1302 27.2566 46.4943 26.1785C45.8583 25.1004 44.9703 24.1927 43.9065 23.5333C42.8426 22.8738 41.6346 22.4823 40.3862 22.3923C39.1377 22.3024 37.8861 22.5167 36.7386 23.0168C35.9222 21.3778 34.5511 20.0814 32.8691 19.3578C31.1871 18.6341 29.3031 18.5302 27.5516 19.0644V10.0777C27.5516 8.02475 26.7361 6.05584 25.2844 4.60415C23.8327 3.15246 21.8638 2.33691 19.8108 2.33691ZM52.1402 50.8838L52.1256 50.6033V37.3983C52.1256 36.7945 51.8857 36.2154 51.4588 35.7884C51.0318 35.3615 50.4527 35.1216 49.8489 35.1216H48.4829C48.2413 35.1216 48.0097 35.2175 47.8389 35.3883C47.6681 35.5591 47.5722 35.7908 47.5722 36.0323V37.8537C47.5722 38.5782 47.2843 39.2732 46.772 39.7855C46.2596 40.2979 45.5647 40.5857 44.8401 40.5857C44.1155 40.5857 43.4206 40.2979 42.9083 39.7855C42.3959 39.2732 42.1081 38.5782 42.1081 37.8537V30.1092C42.1081 29.5068 41.8688 28.9291 41.4428 28.5032C41.0169 28.0772 40.4392 27.8379 39.8368 27.8379C39.2344 27.8379 38.6567 28.0772 38.2308 28.5032C37.8048 28.9291 37.5655 29.5068 37.5655 30.1092L37.5692 32.3823L37.5546 32.6846V34.5752C37.5546 35.2998 37.2668 35.9947 36.7544 36.507C36.2421 37.0194 35.5472 37.3073 34.8226 37.3073C34.098 37.3073 33.4031 37.0194 32.8907 36.507C32.3783 35.9947 32.0905 35.2998 32.0905 34.5752V26.4701C32.0905 25.8663 31.8506 25.2872 31.4237 24.8602C30.9967 24.4332 30.4176 24.1934 29.8138 24.1934C29.21 24.1934 28.6309 24.4332 28.2039 24.8602C27.7769 25.2872 27.5371 25.8663 27.5371 26.4701V36.0323C27.5371 36.7569 27.2492 37.4518 26.7369 37.9641C26.2245 38.4765 25.5296 38.7643 24.805 38.7643C24.0804 38.7643 23.3855 38.4765 22.8732 37.9641C22.3608 37.4518 22.073 36.7569 22.073 36.0323V26.4701C22.073 26.1617 22.09 25.8581 22.124 25.5594C22.1023 25.4085 22.0901 25.2565 22.0875 25.1041V10.0777C22.0875 9.47392 21.8477 8.89483 21.4207 8.46786C20.9937 8.0409 20.4146 7.80103 19.8108 7.80103C19.207 7.80103 18.6279 8.0409 18.2009 8.46786C17.774 8.89483 17.5341 9.47392 17.5341 10.0777V45.1391C17.5341 45.8637 17.2463 46.5586 16.7339 47.071C16.2215 47.5834 15.5266 47.8712 14.802 47.8712C14.0775 47.8712 13.3825 47.5834 12.8702 47.071C12.3578 46.5586 12.07 45.8637 12.07 45.1391V40.6549C8.2014 41.2487 6.05946 45.5872 8.12854 49.0005C9.27724 50.9176 10.465 52.811 11.6911 54.6795C14.2192 58.8869 17.0642 61.6736 20.4046 63.4439C23.7705 65.2252 27.8504 66.0849 33.0158 66.0849C38.2613 66.0849 43.0879 65.1961 46.5267 62.9012C49.725 60.7702 52.071 57.1966 52.1365 50.8801" fill="#3B82F6"/>
<mask id="path-2-outside-1_978_87" maskUnits="userSpaceOnUse" x="5.32446" y="6.80078" width="48" height="61" fill="black">
<rect fill="white" x="5.32446" y="6.80078" width="48" height="61"/>
<path fill-rule="evenodd" clip-rule="evenodd" d="M52.1401 50.8835L52.1255 50.603V37.3981C52.1255 36.7942 51.8857 36.2152 51.4587 35.7882C51.0317 35.3612 50.4526 35.1214 49.8488 35.1214H48.4828C48.2413 35.1214 48.0096 35.2173 47.8388 35.3881C47.6681 35.5589 47.5721 35.7905 47.5721 36.032V37.8534C47.5721 38.578 47.2843 39.2729 46.7719 39.7853C46.2596 40.2976 45.5646 40.5855 44.8401 40.5855C44.1155 40.5855 43.4206 40.2976 42.9082 39.7853C42.3958 39.2729 42.108 38.578 42.108 37.8534V30.1089C42.108 29.5066 41.8687 28.9289 41.4428 28.5029C41.0168 28.077 40.4391 27.8377 39.8368 27.8377C39.2344 27.8377 38.6567 28.077 38.2307 28.5029C37.8048 28.9289 37.5655 29.5066 37.5655 30.1089L37.5691 32.382L37.5546 32.6844V34.5749C37.5546 35.2995 37.2667 35.9944 36.7544 36.5068C36.242 37.0192 35.5471 37.307 34.8225 37.307C34.0979 37.307 33.403 37.0192 32.8907 36.5068C32.3783 35.9944 32.0905 35.2995 32.0905 34.5749V26.4698C32.0905 25.866 31.8506 25.2869 31.4236 24.86C30.9966 24.433 30.4176 24.1931 29.8137 24.1931C29.2099 24.1931 28.6308 24.433 28.2039 24.86C27.7769 25.2869 27.537 25.866 27.537 26.4698V36.032C27.537 36.7566 27.2492 37.4515 26.7368 37.9639C26.2245 38.4763 25.5296 38.7641 24.805 38.7641C24.0804 38.7641 23.3855 38.4763 22.8731 37.9639C22.3607 37.4515 22.0729 36.7566 22.0729 36.032V26.4698C22.0729 26.1614 22.0899 25.8579 22.1239 25.5592C22.1023 25.4083 22.0901 25.2562 22.0875 25.1038V10.0775C22.0875 9.47367 21.8476 8.89458 21.4206 8.46762C20.9937 8.04065 20.4146 7.80078 19.8108 7.80078C19.2069 7.80078 18.6279 8.04065 18.2009 8.46762C17.7739 8.89458 17.534 9.47367 17.534 10.0775V45.1389C17.534 45.8635 17.2462 46.5584 16.7338 47.0708C16.2215 47.5831 15.5266 47.871 14.802 47.871C14.0774 47.871 13.3825 47.5831 12.8701 47.0708C12.3578 46.5584 12.0699 45.8635 12.0699 45.1389V40.6547C8.20134 41.2484 6.05941 45.587 8.12849 49.0002C9.27718 50.9173 10.465 52.8107 11.6911 54.6792C14.2192 58.8866 17.0641 61.6733 20.4045 63.4437C23.7704 65.225 27.8503 66.0847 33.0157 66.0847C38.2613 66.0847 43.0879 65.1958 46.5266 62.9009C49.725 60.7699 52.0709 57.1964 52.1365 50.8799"/>
</mask>
<path fill-rule="evenodd" clip-rule="evenodd" d="M52.1401 50.8835L52.1255 50.603V37.3981C52.1255 36.7942 51.8857 36.2152 51.4587 35.7882C51.0317 35.3612 50.4526 35.1214 49.8488 35.1214H48.4828C48.2413 35.1214 48.0096 35.2173 47.8388 35.3881C47.6681 35.5589 47.5721 35.7905 47.5721 36.032V37.8534C47.5721 38.578 47.2843 39.2729 46.7719 39.7853C46.2596 40.2976 45.5646 40.5855 44.8401 40.5855C44.1155 40.5855 43.4206 40.2976 42.9082 39.7853C42.3958 39.2729 42.108 38.578 42.108 37.8534V30.1089C42.108 29.5066 41.8687 28.9289 41.4428 28.5029C41.0168 28.077 40.4391 27.8377 39.8368 27.8377C39.2344 27.8377 38.6567 28.077 38.2307 28.5029C37.8048 28.9289 37.5655 29.5066 37.5655 30.1089L37.5691 32.382L37.5546 32.6844V34.5749C37.5546 35.2995 37.2667 35.9944 36.7544 36.5068C36.242 37.0192 35.5471 37.307 34.8225 37.307C34.0979 37.307 33.403 37.0192 32.8907 36.5068C32.3783 35.9944 32.0905 35.2995 32.0905 34.5749V26.4698C32.0905 25.866 31.8506 25.2869 31.4236 24.86C30.9966 24.433 30.4176 24.1931 29.8137 24.1931C29.2099 24.1931 28.6308 24.433 28.2039 24.86C27.7769 25.2869 27.537 25.866 27.537 26.4698V36.032C27.537 36.7566 27.2492 37.4515 26.7368 37.9639C26.2245 38.4763 25.5296 38.7641 24.805 38.7641C24.0804 38.7641 23.3855 38.4763 22.8731 37.9639C22.3607 37.4515 22.0729 36.7566 22.0729 36.032V26.4698C22.0729 26.1614 22.0899 25.8579 22.1239 25.5592C22.1023 25.4083 22.0901 25.2562 22.0875 25.1038V10.0775C22.0875 9.47367 21.8476 8.89458 21.4206 8.46762C20.9937 8.04065 20.4146 7.80078 19.8108 7.80078C19.2069 7.80078 18.6279 8.04065 18.2009 8.46762C17.7739 8.89458 17.534 9.47367 17.534 10.0775V45.1389C17.534 45.8635 17.2462 46.5584 16.7338 47.0708C16.2215 47.5831 15.5266 47.871 14.802 47.871C14.0774 47.871 13.3825 47.5831 12.8701 47.0708C12.3578 46.5584 12.0699 45.8635 12.0699 45.1389V40.6547C8.20134 41.2484 6.05941 45.587 8.12849 49.0002C9.27718 50.9173 10.465 52.8107 11.6911 54.6792C14.2192 58.8866 17.0641 61.6733 20.4045 63.4437C23.7704 65.225 27.8503 66.0847 33.0157 66.0847C38.2613 66.0847 43.0879 65.1958 46.5266 62.9009C49.725 60.7699 52.0709 57.1964 52.1365 50.8799" fill="#BFDBFE"/>
<path d="M52.1255 50.603H51.1255V50.629L51.1269 50.6549L52.1255 50.603ZM37.5655 30.1089L36.5655 30.1089L36.5655 30.1105L37.5655 30.1089ZM37.5691 32.382L38.568 32.4301L38.5692 32.4053L38.5691 32.3804L37.5691 32.382ZM37.5546 32.6844L36.5557 32.6362L36.5546 32.6603V32.6844H37.5546ZM37.5546 34.5749L38.5546 34.5749V34.5749H37.5546ZM32.0905 34.5749H31.0905V34.5749L32.0905 34.5749ZM32.0905 26.4698H31.0905H32.0905ZM22.1239 25.5592L23.1175 25.6722L23.132 25.5444L23.1138 25.4171L22.1239 25.5592ZM22.0875 25.1038H21.0875V25.1124L21.0876 25.1209L22.0875 25.1038ZM17.534 45.1389H18.534H17.534ZM12.0699 45.1389L11.0699 45.1389L12.0699 45.1389ZM12.0699 40.6547H13.0699V39.4895L11.9182 39.6663L12.0699 40.6547ZM8.12849 49.0002L8.9863 48.4862L8.98364 48.4818L8.12849 49.0002ZM11.6911 54.6792L12.5483 54.1642L12.538 54.1472L12.5272 54.1306L11.6911 54.6792ZM20.4045 63.4437L19.9362 64.3273L19.9368 64.3275L20.4045 63.4437ZM46.5266 62.9009L45.9722 62.0687L45.9715 62.0691L46.5266 62.9009ZM53.1388 50.8316L53.1242 50.5511L51.1269 50.6549L51.1415 50.9354L53.1388 50.8316ZM53.1255 50.603V37.3981H51.1255V50.603H53.1255ZM53.1255 37.3981C53.1255 36.529 52.7803 35.6956 52.1658 35.0811L50.7516 36.4953C50.991 36.7347 51.1255 37.0595 51.1255 37.3981H53.1255ZM52.1658 35.0811C51.5513 34.4666 50.7179 34.1214 49.8488 34.1214V36.1214C50.1874 36.1214 50.5122 36.2559 50.7516 36.4953L52.1658 35.0811ZM49.8488 34.1214H48.4828V36.1214H49.8488V34.1214ZM48.4828 34.1214C47.976 34.1214 47.4901 34.3227 47.1317 34.681L48.546 36.0952C48.5292 36.1119 48.5065 36.1214 48.4828 36.1214V34.1214ZM47.1317 34.681C46.7734 35.0393 46.5721 35.5253 46.5721 36.032H48.5721C48.5721 36.0557 48.5627 36.0784 48.546 36.0952L47.1317 34.681ZM46.5721 36.032V37.8534H48.5721V36.032H46.5721ZM46.5721 37.8534C46.5721 38.3128 46.3896 38.7533 46.0648 39.0782L47.479 40.4924C48.1789 39.7925 48.5721 38.8432 48.5721 37.8534H46.5721ZM46.0648 39.0782C45.74 39.403 45.2994 39.5855 44.8401 39.5855V41.5855C45.8299 41.5855 46.7791 41.1923 47.479 40.4924L46.0648 39.0782ZM44.8401 39.5855C44.3807 39.5855 43.9401 39.403 43.6153 39.0782L42.2011 40.4924C42.901 41.1923 43.8503 41.5855 44.8401 41.5855V39.5855ZM43.6153 39.0782C43.2905 38.7533 43.108 38.3128 43.108 37.8534H41.108C41.108 38.8432 41.5012 39.7925 42.2011 40.4924L43.6153 39.0782ZM43.108 37.8534V30.1089H41.108V37.8534H43.108ZM43.108 30.1089C43.108 29.2413 42.7633 28.4093 42.1499 27.7958L40.7357 29.21C40.9741 29.4484 41.108 29.7718 41.108 30.1089H43.108ZM42.1499 27.7958C41.5364 27.1823 40.7043 26.8377 39.8368 26.8377V28.8377C40.1739 28.8377 40.4973 28.9716 40.7357 29.21L42.1499 27.7958ZM39.8368 26.8377C38.9692 26.8377 38.1371 27.1823 37.5236 27.7958L38.9378 29.21C39.1762 28.9716 39.4996 28.8377 39.8368 28.8377V26.8377ZM37.5236 27.7958C36.9101 28.4093 36.5655 29.2413 36.5655 30.1089L38.5655 30.1089C38.5655 29.7718 38.6994 29.4484 38.9378 29.21L37.5236 27.7958ZM36.5655 30.1105L36.5691 32.3836L38.5691 32.3804L38.5655 30.1073L36.5655 30.1105ZM36.5703 32.3339L36.5557 32.6362L38.5534 32.7325L38.568 32.4301L36.5703 32.3339ZM36.5546 32.6844V34.5749H38.5546V32.6844H36.5546ZM36.5546 34.5749C36.5546 35.0343 36.3721 35.4749 36.0473 35.7997L37.4615 37.2139C38.1614 36.514 38.5546 35.5647 38.5546 34.5749L36.5546 34.5749ZM36.0473 35.7997C35.7224 36.1245 35.2819 36.307 34.8225 36.307V38.307C35.8123 38.307 36.7616 37.9138 37.4615 37.2139L36.0473 35.7997ZM34.8225 36.307C34.3631 36.307 33.9226 36.1245 33.5978 35.7997L32.1835 37.2139C32.8834 37.9138 33.8327 38.307 34.8225 38.307V36.307ZM33.5978 35.7997C33.2729 35.4749 33.0905 35.0343 33.0905 34.5749L31.0905 34.5749C31.0905 35.5647 31.4836 36.514 32.1835 37.2139L33.5978 35.7997ZM33.0905 34.5749V26.4698H31.0905V34.5749H33.0905ZM33.0905 26.4698C33.0905 25.6008 32.7452 24.7674 32.1307 24.1529L30.7165 25.5671C30.9559 25.8065 31.0905 26.1312 31.0905 26.4698L33.0905 26.4698ZM32.1307 24.1529C31.5162 23.5383 30.6828 23.1931 29.8137 23.1931V25.1931C30.1523 25.1931 30.4771 25.3276 30.7165 25.5671L32.1307 24.1529ZM29.8137 23.1931C28.9447 23.1931 28.1113 23.5383 27.4967 24.1529L28.911 25.5671C29.1504 25.3276 29.4751 25.1931 29.8137 25.1931V23.1931ZM27.4967 24.1529C26.8822 24.7674 26.537 25.6008 26.537 26.4698H28.537C28.537 26.1312 28.6715 25.8065 28.911 25.5671L27.4967 24.1529ZM26.537 26.4698V36.032H28.537V26.4698H26.537ZM26.537 36.032C26.537 36.4914 26.3545 36.932 26.0297 37.2568L27.4439 38.671C28.1438 37.9711 28.537 37.0218 28.537 36.032H26.537ZM26.0297 37.2568C25.7049 37.5816 25.2643 37.7641 24.805 37.7641V39.7641C25.7948 39.7641 26.744 39.3709 27.4439 38.671L26.0297 37.2568ZM24.805 37.7641C24.3456 37.7641 23.905 37.5816 23.5802 37.2568L22.166 38.671C22.8659 39.3709 23.8152 39.7641 24.805 39.7641V37.7641ZM23.5802 37.2568C23.2554 36.932 23.0729 36.4914 23.0729 36.032H21.0729C21.0729 37.0218 21.4661 37.9711 22.166 38.671L23.5802 37.2568ZM23.0729 36.032V26.4698H21.0729V36.032H23.0729ZM23.0729 26.4698C23.0729 26.1982 23.0879 25.9325 23.1175 25.6722L21.1303 25.4461C21.0919 25.7833 21.0729 26.1246 21.0729 26.4698H23.0729ZM23.1138 25.4171C23.098 25.3076 23.0892 25.1973 23.0873 25.0867L21.0876 25.1209C21.0909 25.3151 21.1065 25.509 21.1341 25.7012L23.1138 25.4171ZM23.0875 25.1038V10.0775H21.0875V25.1038H23.0875ZM23.0875 10.0775C23.0875 9.20846 22.7423 8.37501 22.1278 7.76051L20.7135 9.17472C20.953 9.41415 21.0875 9.73889 21.0875 10.0775H23.0875ZM22.1278 7.76051C21.5132 7.14601 20.6798 6.80078 19.8108 6.80078V8.80078C20.1494 8.80078 20.4741 8.93529 20.7135 9.17472L22.1278 7.76051ZM19.8108 6.80078C18.9417 6.80078 18.1083 7.14601 17.4938 7.76051L18.908 9.17472C19.1474 8.93529 19.4722 8.80078 19.8108 8.80078V6.80078ZM17.4938 7.76051C16.8793 8.37501 16.534 9.20846 16.534 10.0775H18.534C18.534 9.73889 18.6686 9.41415 18.908 9.17472L17.4938 7.76051ZM16.534 10.0775V45.1389H18.534V10.0775H16.534ZM16.534 45.1389C16.534 45.5983 16.3516 46.0388 16.0267 46.3636L17.441 47.7779C18.1409 47.078 18.534 46.1287 18.534 45.1389L16.534 45.1389ZM16.0267 46.3636C15.7019 46.6885 15.2614 46.871 14.802 46.871V48.871C15.7918 48.871 16.7411 48.4778 17.441 47.7779L16.0267 46.3636ZM14.802 46.871C14.3426 46.871 13.9021 46.6885 13.5772 46.3636L12.163 47.7779C12.8629 48.4778 13.8122 48.871 14.802 48.871V46.871ZM13.5772 46.3636C13.2524 46.0388 13.0699 45.5983 13.0699 45.1389L11.0699 45.1389C11.0699 46.1287 11.4631 47.078 12.163 47.7779L13.5772 46.3636ZM13.0699 45.1389V40.6547H11.0699V45.1389H13.0699ZM11.9182 39.6663C7.37005 40.3643 4.8219 45.4746 7.27334 49.5186L8.98364 48.4818C7.29692 45.6993 9.03264 42.1326 12.2216 41.6431L11.9182 39.6663ZM7.27069 49.5142C8.42639 51.443 9.62142 53.3479 10.855 55.2279L12.5272 54.1306C11.3085 52.2735 10.128 50.3916 8.98629 48.4862L7.27069 49.5142ZM10.8339 55.1943C13.4359 59.5246 16.4042 62.4553 19.9362 64.3273L20.8728 62.5601C17.7241 60.8913 15.0024 58.2486 12.5483 54.1642L10.8339 55.1943ZM19.9368 64.3275C23.488 66.2069 27.7413 67.0847 33.0157 67.0847V65.0847C27.9593 65.0847 24.0529 64.2431 20.8723 62.5598L19.9368 64.3275ZM33.0157 67.0847C38.3403 67.0847 43.402 66.1885 47.0818 63.7327L45.9715 62.0691C42.7738 64.2032 38.1822 65.0847 33.0157 65.0847V67.0847ZM47.0811 63.7331C50.5853 61.3983 53.0678 57.499 53.1364 50.8902L51.1365 50.8695C51.074 56.8938 48.8646 60.1415 45.9722 62.0687L47.0811 63.7331Z" fill="#BFDBFE" mask="url(#path-2-outside-1_978_87)"/>
<path fill-rule="evenodd" clip-rule="evenodd" d="M16.9988 69.881C12.2814 67.3857 8.54761 63.5718 5.48771 58.5047C4.25367 56.6192 3.0562 54.7101 1.89596 52.7783C-2.86511 44.9209 1.94332 35.3405 10.2488 33.5811V10.0817C10.2488 7.54568 11.2562 5.1135 13.0495 3.32024C14.8427 1.52697 17.2749 0.519531 19.811 0.519531C22.347 0.519531 24.7792 1.52697 26.5725 3.32024C28.3657 5.1135 29.3732 7.54568 29.3732 10.0817V16.9228L29.8103 16.9119C31.3157 16.9104 32.8002 17.2651 34.1423 17.9469C35.4845 18.6288 36.6463 19.6184 37.5329 20.8351C39.9984 20.2279 42.604 20.6242 44.7775 21.937C46.9509 23.2498 48.5143 25.3717 49.1241 27.8365H49.8527C52.3887 27.8365 54.8209 28.8439 56.6142 30.6372C58.4074 32.4304 59.4149 34.8626 59.4149 37.3987V50.2248C59.4246 50.351 59.4294 50.4773 59.4294 50.6036C59.4294 59.2151 56.0927 65.2839 50.5703 68.963C45.3757 72.4236 38.8443 73.3708 33.0159 73.3708C27.0564 73.3708 21.7125 72.3763 16.9988 69.881ZM7.02859 57.5321C9.95735 62.3915 13.4726 65.9541 17.8475 68.2709C22.2225 70.5877 27.2531 71.5494 33.0159 71.5494C38.6986 71.5494 44.8038 70.6168 49.5576 67.4477C54.5117 64.1473 57.6044 58.6869 57.6044 50.6036L57.5899 50.3122V37.3987C57.5899 36.3818 57.3895 35.3749 57.0003 34.4355C56.611 33.4961 56.0405 32.6426 55.3213 31.9238C54.6022 31.2049 53.7484 30.6348 52.8088 30.246C51.8692 29.8572 50.8622 29.6574 49.8454 29.6578H48.4794C48.1661 29.6578 47.8589 29.6797 47.5577 29.7234C47.4623 27.7409 46.6072 25.8714 45.1699 24.5026C43.7326 23.1338 41.8235 22.371 39.8388 22.3723C38.735 22.3723 37.6896 22.6018 36.7424 23.0171C35.9259 21.3774 34.5542 20.0804 32.8714 19.3567C31.1886 18.633 29.3037 18.5296 27.5518 19.0647V10.0781C27.5518 8.02509 26.7363 6.05618 25.2846 4.6045C23.8329 3.15281 21.864 2.33726 19.811 2.33726C17.758 2.33726 15.7891 3.15281 14.3374 4.6045C12.8857 6.05618 12.0701 8.02509 12.0701 10.0781V35.1584C4.04518 35.7886 -0.887096 44.6732 3.45505 51.8349C4.74823 53.9695 6.0159 56.0058 7.02859 57.5285" fill="#3B82F6"/>
</svg>
