<svg width="60" height="60" viewBox="0 0 60 60" fill="none" xmlns="http://www.w3.org/2000/svg">
<path d="M30 5.62501C23.5353 5.62501 17.3355 8.19308 12.7643 12.7643C8.19307 17.3355 5.625 23.5354 5.625 30C5.625 30.7459 5.32868 31.4613 4.80124 31.9887C4.27379 32.5162 3.55842 32.8125 2.8125 32.8125C2.06658 32.8125 1.35121 32.5162 0.823762 31.9887C0.296316 31.4613 1.57191e-08 30.7459 0 30C0 24.0666 1.75947 18.2664 5.05591 13.3329C8.35235 8.39943 13.0377 4.55426 18.5195 2.28363C24.0013 0.0129983 30.0333 -0.581101 35.8527 0.576455C41.6721 1.73401 47.0176 4.59123 51.2132 8.78681C55.4088 12.9824 58.266 18.3279 59.4235 24.1473C60.5811 29.9667 59.987 35.9987 57.7164 41.4805C55.4457 46.9623 51.6006 51.6476 46.6671 54.9441C41.7336 58.2405 35.9334 60 30 60C29.2541 60 28.5387 59.7037 28.0113 59.1762C27.4838 58.6488 27.1875 57.9334 27.1875 57.1875C27.1875 56.4416 27.4838 55.7262 28.0113 55.1988C28.5387 54.6713 29.2541 54.375 30 54.375C36.4646 54.375 42.6645 51.8069 47.2357 47.2357C51.8069 42.6645 54.375 36.4647 54.375 30C54.375 23.5354 51.8069 17.3355 47.2357 12.7643C42.6645 8.19308 36.4646 5.62501 30 5.62501Z" fill="#D10D0F"/>
</svg>
