<svg width="61" height="60" viewBox="0 0 61 60" fill="none" xmlns="http://www.w3.org/2000/svg">
<path d="M30.4736 5.62501C24.009 5.62501 17.8091 8.19308 13.2379 12.7643C8.6667 17.3355 6.09863 23.5354 6.09863 30C6.09863 30.7459 5.80232 31.4613 5.27487 31.9887C4.74742 32.5162 4.03205 32.8125 3.28613 32.8125C2.54021 32.8125 1.82484 32.5162 1.29739 31.9887C0.769948 31.4613 0.473633 30.7459 0.473633 30C0.473633 24.0666 2.2331 18.2664 5.52954 13.3329C8.82598 8.39943 13.5113 4.55426 18.9931 2.28363C24.4749 0.0129983 30.5069 -0.581101 36.3263 0.576455C42.1458 1.73401 47.4913 4.59123 51.6868 8.78681C55.8824 12.9824 58.7396 18.3279 59.8972 24.1473C61.0547 29.9667 60.4606 35.9987 58.19 41.4805C55.9194 46.9623 52.0742 51.6476 47.1407 54.9441C42.2073 58.2405 36.4071 60 30.4736 60C29.7277 60 29.0123 59.7037 28.4849 59.1762C27.9574 58.6488 27.6611 57.9334 27.6611 57.1875C27.6611 56.4416 27.9574 55.7262 28.4849 55.1988C29.0123 54.6713 29.7277 54.375 30.4736 54.375C36.9383 54.375 43.1382 51.8069 47.7094 47.2357C52.2805 42.6645 54.8486 36.4647 54.8486 30C54.8486 23.5354 52.2805 17.3355 47.7094 12.7643C43.1382 8.19308 36.9383 5.62501 30.4736 5.62501Z" fill="#3B82F6"/>
</svg>
